<svg width="400" height="400" viewBox="0 0 400 400" xmlns="http://www.w3.org/2000/svg">
  <!-- Green Waste Bin -->
  <rect x="150" y="100" width="100" height="150" rx="10" fill="#2E8B57" />
  <rect x="140" y="90" width="120" height="20" rx="5" fill="#006400" />
  
  <!-- QR Code on Bin -->
  <rect x="175" y="130" width="50" height="50" fill="white" />
  <rect x="185" y="140" width="10" height="10" fill="black" />
  <rect x="205" y="140" width="10" height="10" fill="black" />
  <rect x="185" y="160" width="10" height="10" fill="black" />
  <rect x="205" y="160" width="10" height="10" fill="black" />
  <line x1="185" y1="150" x2="215" y2="150" stroke="black" stroke-width="2" />
  <line x1="195" y1="140" x2="195" y2="170" stroke="black" stroke-width="2" />
  
  <!-- Rating Stars -->
  <circle cx="175" cy="200" r="5" fill="#FFD700" />
  <circle cx="190" cy="200" r="5" fill="#FFD700" />
  <circle cx="205" cy="200" r="5" fill="#FFD700" />
  <circle cx="220" cy="200" r="5" fill="#FFD700" />
  <circle cx="235" cy="200" r="5" fill="#FFD700" />
  
  <!-- Yellow Basket with Recyclables -->
  <path d="M240 220 L270 220 L280 250 L230 250 Z" fill="#FFB000" />
  <rect x="245" y="225" width="10" height="15" fill="#3CB371" rx="2" /> <!-- Green item -->
  <rect x="260" y="225" width="5" height="10" fill="#4169E1" rx="1" /> <!-- Blue item -->
  <circle cx="255" cy="230" r="3" fill="#C0C0C0" /> <!-- Silver item -->
  
  <!-- Decorative Leaves -->
  <path d="M120 150 Q100 120 120 100 Q140 120 120 150 Z" fill="#3CB371" />
  <path d="M120 180 Q90 170 80 140 Q110 150 120 180 Z" fill="#32CD32" />
  <path d="M280 130 Q310 120 320 90 Q290 110 280 130 Z" fill="#3CB371" />
  <path d="M290 160 Q320 150 340 130 Q310 150 290 160 Z" fill="#32CD32" />
</svg>